G04*
G04 #@! TF.GenerationSoftware,Altium Limited,CircuitStudio,1.5.1 (13)*
G04*
G04 Layer_Color=12697792*
%FSLAX43Y43*%
%MOMM*%
G71*
G01*
G75*
%ADD12C,1.500*%
%ADD13R,1.500X1.500*%
%ADD14C,1.600*%
%ADD15R,1.500X1.500*%
%ADD16C,1.524*%
D12*
X153289Y112649D02*
D03*
Y110109D02*
D03*
X150749Y112649D02*
D03*
X113792Y175847D02*
D03*
Y173307D02*
D03*
X111252Y175847D02*
D03*
X114808Y124690D02*
D03*
Y127230D02*
D03*
Y129770D02*
D03*
Y132310D02*
D03*
Y134850D02*
D03*
Y137390D02*
D03*
Y139930D02*
D03*
Y142470D02*
D03*
Y145010D02*
D03*
Y147550D02*
D03*
Y150090D02*
D03*
Y152630D02*
D03*
Y155170D02*
D03*
Y157710D02*
D03*
Y160250D02*
D03*
X112268Y124690D02*
D03*
Y127230D02*
D03*
Y129770D02*
D03*
Y132310D02*
D03*
Y134850D02*
D03*
Y137390D02*
D03*
Y139930D02*
D03*
Y142470D02*
D03*
Y145010D02*
D03*
Y147550D02*
D03*
Y150090D02*
D03*
Y152630D02*
D03*
Y155170D02*
D03*
Y157710D02*
D03*
D13*
X150749Y110109D02*
D03*
X111252Y173307D02*
D03*
D14*
X140335Y176101D02*
D03*
X137795D02*
D03*
X145257Y159234D02*
D03*
Y156694D02*
D03*
Y154154D02*
D03*
Y151614D02*
D03*
Y149074D02*
D03*
Y146534D02*
D03*
Y143994D02*
D03*
Y141454D02*
D03*
Y138914D02*
D03*
Y136374D02*
D03*
Y133834D02*
D03*
Y131294D02*
D03*
Y128754D02*
D03*
Y126214D02*
D03*
Y123674D02*
D03*
X122967Y159234D02*
D03*
Y156694D02*
D03*
Y154154D02*
D03*
Y151614D02*
D03*
Y149074D02*
D03*
Y146534D02*
D03*
Y143994D02*
D03*
Y141454D02*
D03*
Y138914D02*
D03*
Y136374D02*
D03*
Y133834D02*
D03*
Y131294D02*
D03*
Y128754D02*
D03*
Y126214D02*
D03*
Y123674D02*
D03*
D15*
X112268Y160250D02*
D03*
D16*
X130000Y172523D02*
D03*
X126400D02*
D03*
Y176123D02*
D03*
X130000D02*
D03*
M02*
