G04*
G04 #@! TF.GenerationSoftware,Altium Limited,CircuitStudio,1.5.1 (13)*
G04*
G04 Layer_Color=8150272*
%FSLAX43Y43*%
%MOMM*%
G71*
G01*
G75*
%ADD26C,0.203*%
%ADD27C,1.703*%
%ADD28R,1.703X1.703*%
%ADD29C,1.803*%
%ADD30R,1.703X1.703*%
%ADD31C,1.727*%
%ADD32C,0.903*%
D26*
X114349Y114403D02*
D03*
X141949D02*
D03*
Y168103D02*
D03*
X114349D02*
D03*
D27*
X153289Y112649D02*
D03*
Y110109D02*
D03*
X150749Y112649D02*
D03*
X113792Y175847D02*
D03*
Y173307D02*
D03*
X111252Y175847D02*
D03*
X114808Y124690D02*
D03*
Y127230D02*
D03*
Y129770D02*
D03*
Y132310D02*
D03*
Y134850D02*
D03*
Y137390D02*
D03*
Y139930D02*
D03*
Y142470D02*
D03*
Y145010D02*
D03*
Y147550D02*
D03*
Y150090D02*
D03*
Y152630D02*
D03*
Y155170D02*
D03*
Y157710D02*
D03*
Y160250D02*
D03*
X112268Y124690D02*
D03*
Y127230D02*
D03*
Y129770D02*
D03*
Y132310D02*
D03*
Y134850D02*
D03*
Y137390D02*
D03*
Y139930D02*
D03*
Y142470D02*
D03*
Y145010D02*
D03*
Y147550D02*
D03*
Y150090D02*
D03*
Y152630D02*
D03*
Y155170D02*
D03*
Y157710D02*
D03*
D28*
X150749Y110109D02*
D03*
X111252Y173307D02*
D03*
D29*
X140335Y176101D02*
D03*
X137795D02*
D03*
X145257Y159234D02*
D03*
Y156694D02*
D03*
Y154154D02*
D03*
Y151614D02*
D03*
Y149074D02*
D03*
Y146534D02*
D03*
Y143994D02*
D03*
Y141454D02*
D03*
Y138914D02*
D03*
Y136374D02*
D03*
Y133834D02*
D03*
Y131294D02*
D03*
Y128754D02*
D03*
Y126214D02*
D03*
Y123674D02*
D03*
X122967Y159234D02*
D03*
Y156694D02*
D03*
Y154154D02*
D03*
Y151614D02*
D03*
Y149074D02*
D03*
Y146534D02*
D03*
Y143994D02*
D03*
Y141454D02*
D03*
Y138914D02*
D03*
Y136374D02*
D03*
Y133834D02*
D03*
Y131294D02*
D03*
Y128754D02*
D03*
Y126214D02*
D03*
Y123674D02*
D03*
D30*
X112268Y160250D02*
D03*
D31*
X130000Y172523D02*
D03*
X126400D02*
D03*
Y176123D02*
D03*
X130000D02*
D03*
D32*
X128373Y133834D02*
D03*
M02*
