G04*
G04 #@! TF.GenerationSoftware,Altium Limited,CircuitStudio,1.5.1 (13)*
G04*
G04 Layer_Physical_Order=2*
G04 Layer_Color=12500520*
%FSLAX43Y43*%
%MOMM*%
G71*
G01*
G75*
%ADD11C,0.400*%
%ADD12C,1.500*%
%ADD13R,1.500X1.500*%
%ADD14C,1.600*%
%ADD15R,1.500X1.500*%
%ADD16C,1.524*%
%ADD17C,0.700*%
D11*
X116608Y176123D02*
X126400D01*
X113792Y173307D02*
X116608Y176123D01*
X113792Y175847D02*
X115443Y177498D01*
X145257Y126214D02*
X146685D01*
X126400Y170929D02*
Y172523D01*
X126111Y170640D02*
X126400Y170929D01*
X111633Y170640D02*
X126111D01*
X111252Y171021D02*
X111633Y170640D01*
X111252Y171021D02*
Y173307D01*
X128625Y177498D02*
X130000Y176123D01*
X115443Y177498D02*
X128625D01*
X130000Y172523D02*
X133328D01*
X133858Y173053D01*
Y178133D01*
X132842Y179149D02*
X133858Y178133D01*
X112268Y179149D02*
X132842D01*
X111252Y178133D02*
X112268Y179149D01*
X111252Y175847D02*
Y178133D01*
X114808Y157948D02*
X144003D01*
X114808Y124928D02*
X144003D01*
X114808Y124690D02*
Y124928D01*
X144003D02*
X145257Y123674D01*
X114808Y127230D02*
Y127468D01*
X144003D02*
X145257Y126214D01*
X114808Y129770D02*
Y130008D01*
X144003D02*
X145257Y128754D01*
X114808Y130008D02*
X144003D01*
X114808Y132310D02*
Y132548D01*
X144003D02*
X145257Y131294D01*
X114808Y132548D02*
X144003D01*
X114808Y134850D02*
Y135088D01*
X144003D02*
X145257Y133834D01*
X114808Y135088D02*
X144003D01*
X114808Y137390D02*
Y137628D01*
X144003D02*
X145257Y136374D01*
X114808Y137628D02*
X144003D01*
X114808Y139930D02*
Y140168D01*
X144003D02*
X145257Y138914D01*
X114808Y140168D02*
X144003D01*
X114808Y142470D02*
Y142708D01*
X144003D02*
X145257Y141454D01*
X114808Y142708D02*
X144003D01*
X114808Y145010D02*
Y145248D01*
X144003D02*
X145257Y143994D01*
X114808Y147550D02*
Y147788D01*
X144003D02*
X145257Y146534D01*
X114808Y150090D02*
Y150328D01*
X144003D02*
X145257Y149074D01*
X114808Y150328D02*
X144003D01*
X114808Y152630D02*
Y152868D01*
X144003D02*
X145257Y151614D01*
X114808Y152868D02*
X144003D01*
X114808Y155170D02*
Y155408D01*
X144003D02*
X145257Y154154D01*
X114808Y157710D02*
Y157948D01*
X144003D02*
X145257Y156694D01*
X114808Y160488D02*
X144003D01*
X145257Y159234D01*
X114808Y160250D02*
Y160488D01*
Y145248D02*
X144003D01*
X122967Y133834D02*
X128373D01*
X114808Y147788D02*
X144003D01*
X114808Y127468D02*
X144003D01*
X114808Y155408D02*
X144003D01*
X147574Y117094D02*
Y125325D01*
X146685Y126214D02*
X147574Y125325D01*
Y117094D02*
X148717Y115951D01*
X154305D01*
X150749Y110109D02*
X153289D01*
X150749Y112649D02*
X153289D01*
Y110109D02*
X154686D01*
X155194Y110617D01*
Y115062D01*
X154305Y115951D02*
X155194Y115062D01*
X145257Y113188D02*
Y123674D01*
Y113188D02*
X145796Y112649D01*
X150749D01*
D12*
X153289D02*
D03*
Y110109D02*
D03*
X150749Y112649D02*
D03*
X113792Y175847D02*
D03*
Y173307D02*
D03*
X111252Y175847D02*
D03*
X114808Y124690D02*
D03*
Y127230D02*
D03*
Y129770D02*
D03*
Y132310D02*
D03*
Y134850D02*
D03*
Y137390D02*
D03*
Y139930D02*
D03*
Y142470D02*
D03*
Y145010D02*
D03*
Y147550D02*
D03*
Y150090D02*
D03*
Y152630D02*
D03*
Y155170D02*
D03*
Y157710D02*
D03*
Y160250D02*
D03*
X112268Y124690D02*
D03*
Y127230D02*
D03*
Y129770D02*
D03*
Y132310D02*
D03*
Y134850D02*
D03*
Y137390D02*
D03*
Y139930D02*
D03*
Y142470D02*
D03*
Y145010D02*
D03*
Y147550D02*
D03*
Y150090D02*
D03*
Y152630D02*
D03*
Y155170D02*
D03*
Y157710D02*
D03*
D13*
X150749Y110109D02*
D03*
X111252Y173307D02*
D03*
D14*
X140335Y176101D02*
D03*
X137795D02*
D03*
X145257Y159234D02*
D03*
Y156694D02*
D03*
Y154154D02*
D03*
Y151614D02*
D03*
Y149074D02*
D03*
Y146534D02*
D03*
Y143994D02*
D03*
Y141454D02*
D03*
Y138914D02*
D03*
Y136374D02*
D03*
Y133834D02*
D03*
Y131294D02*
D03*
Y128754D02*
D03*
Y126214D02*
D03*
Y123674D02*
D03*
X122967Y159234D02*
D03*
Y156694D02*
D03*
Y154154D02*
D03*
Y151614D02*
D03*
Y149074D02*
D03*
Y146534D02*
D03*
Y143994D02*
D03*
Y141454D02*
D03*
Y138914D02*
D03*
Y136374D02*
D03*
Y133834D02*
D03*
Y131294D02*
D03*
Y128754D02*
D03*
Y126214D02*
D03*
Y123674D02*
D03*
D15*
X112268Y160250D02*
D03*
D16*
X130000Y172523D02*
D03*
X126400D02*
D03*
Y176123D02*
D03*
X130000D02*
D03*
D17*
X128373Y133834D02*
D03*
M02*
