G04*
G04 #@! TF.GenerationSoftware,Altium Limited,CircuitStudio,1.5.1 (13)*
G04*
G04 Layer_Color=128*
%FSLAX43Y43*%
%MOMM*%
G71*
G01*
G75*
%ADD36C,0.127*%
D36*
X112649Y114403D02*
X116049D01*
X114349Y112703D02*
Y116103D01*
X140249Y114403D02*
X143649D01*
X141949Y112703D02*
Y116103D01*
X140249Y168103D02*
X143649D01*
X141949Y166403D02*
Y169803D01*
X112649Y168103D02*
X116049D01*
X114349Y166403D02*
Y169803D01*
X152839Y112649D02*
X153739D01*
X153289Y112199D02*
Y113099D01*
X152839Y110109D02*
X153739D01*
X153289Y109659D02*
Y110559D01*
X150299Y112649D02*
X151199D01*
X150749Y112199D02*
Y113099D01*
X150299Y110109D02*
X151199D01*
X150749Y109659D02*
Y110559D01*
X113342Y175847D02*
X114242D01*
X113792Y175397D02*
Y176297D01*
X113342Y173307D02*
X114242D01*
X113792Y172857D02*
Y173757D01*
X110802Y175847D02*
X111702D01*
X111252Y175397D02*
Y176297D01*
X110802Y173307D02*
X111702D01*
X111252Y172857D02*
Y173757D01*
X139835Y176101D02*
X140835D01*
X140335Y175601D02*
Y176601D01*
X137295Y176101D02*
X138295D01*
X137795Y175601D02*
Y176601D01*
X114358Y124690D02*
X115258D01*
X114808Y124240D02*
Y125140D01*
X114358Y127230D02*
X115258D01*
X114808Y126780D02*
Y127680D01*
X114358Y129770D02*
X115258D01*
X114808Y129320D02*
Y130220D01*
X114358Y132310D02*
X115258D01*
X114808Y131860D02*
Y132760D01*
X114358Y134850D02*
X115258D01*
X114808Y134400D02*
Y135300D01*
X114358Y137390D02*
X115258D01*
X114808Y136940D02*
Y137840D01*
X114358Y139930D02*
X115258D01*
X114808Y139480D02*
Y140380D01*
X114358Y142470D02*
X115258D01*
X114808Y142020D02*
Y142920D01*
X114358Y145010D02*
X115258D01*
X114808Y144560D02*
Y145460D01*
X114358Y147550D02*
X115258D01*
X114808Y147100D02*
Y148000D01*
X114358Y150090D02*
X115258D01*
X114808Y149640D02*
Y150540D01*
X114358Y152630D02*
X115258D01*
X114808Y152180D02*
Y153080D01*
X114358Y155170D02*
X115258D01*
X114808Y154720D02*
Y155620D01*
X114358Y157710D02*
X115258D01*
X114808Y157260D02*
Y158160D01*
X114358Y160250D02*
X115258D01*
X114808Y159800D02*
Y160700D01*
X111818Y124690D02*
X112718D01*
X112268Y124240D02*
Y125140D01*
X111818Y127230D02*
X112718D01*
X112268Y126780D02*
Y127680D01*
X111818Y129770D02*
X112718D01*
X112268Y129320D02*
Y130220D01*
X111818Y132310D02*
X112718D01*
X112268Y131860D02*
Y132760D01*
X111818Y134850D02*
X112718D01*
X112268Y134400D02*
Y135300D01*
X111818Y137390D02*
X112718D01*
X112268Y136940D02*
Y137840D01*
X111818Y139930D02*
X112718D01*
X112268Y139480D02*
Y140380D01*
X111818Y142470D02*
X112718D01*
X112268Y142020D02*
Y142920D01*
X111818Y145010D02*
X112718D01*
X112268Y144560D02*
Y145460D01*
X111818Y147550D02*
X112718D01*
X112268Y147100D02*
Y148000D01*
X111818Y150090D02*
X112718D01*
X112268Y149640D02*
Y150540D01*
X111818Y152630D02*
X112718D01*
X112268Y152180D02*
Y153080D01*
X111818Y155170D02*
X112718D01*
X112268Y154720D02*
Y155620D01*
X111818Y157710D02*
X112718D01*
X112268Y157260D02*
Y158160D01*
X111818Y160250D02*
X112718D01*
X112268Y159800D02*
Y160700D01*
X129619Y172523D02*
X130381D01*
X130000Y172142D02*
Y172904D01*
X126019Y172523D02*
X126781D01*
X126400Y172142D02*
Y172904D01*
X126019Y176123D02*
X126781D01*
X126400Y175742D02*
Y176504D01*
X129619Y176123D02*
X130381D01*
X130000Y175742D02*
Y176504D01*
X144707Y159234D02*
X145807D01*
X145257Y158684D02*
Y159784D01*
X144707Y156694D02*
X145807D01*
X145257Y156144D02*
Y157244D01*
X144707Y154154D02*
X145807D01*
X145257Y153604D02*
Y154704D01*
X144707Y151614D02*
X145807D01*
X145257Y151064D02*
Y152164D01*
X144707Y149074D02*
X145807D01*
X145257Y148524D02*
Y149624D01*
X144707Y146534D02*
X145807D01*
X145257Y145984D02*
Y147084D01*
X144707Y143994D02*
X145807D01*
X145257Y143444D02*
Y144544D01*
X144707Y141454D02*
X145807D01*
X145257Y140904D02*
Y142004D01*
X144707Y138914D02*
X145807D01*
X145257Y138364D02*
Y139464D01*
X144707Y136374D02*
X145807D01*
X145257Y135824D02*
Y136924D01*
X144707Y133834D02*
X145807D01*
X145257Y133284D02*
Y134384D01*
X144707Y131294D02*
X145807D01*
X145257Y130744D02*
Y131844D01*
X144707Y128754D02*
X145807D01*
X145257Y128204D02*
Y129304D01*
X144707Y126214D02*
X145807D01*
X145257Y125664D02*
Y126764D01*
X144707Y123674D02*
X145807D01*
X145257Y123124D02*
Y124224D01*
X122417Y159234D02*
X123517D01*
X122967Y158684D02*
Y159784D01*
X122417Y156694D02*
X123517D01*
X122967Y156144D02*
Y157244D01*
X122417Y154154D02*
X123517D01*
X122967Y153604D02*
Y154704D01*
X122417Y151614D02*
X123517D01*
X122967Y151064D02*
Y152164D01*
X122417Y149074D02*
X123517D01*
X122967Y148524D02*
Y149624D01*
X122417Y146534D02*
X123517D01*
X122967Y145984D02*
Y147084D01*
X122417Y143994D02*
X123517D01*
X122967Y143444D02*
Y144544D01*
X122417Y141454D02*
X123517D01*
X122967Y140904D02*
Y142004D01*
X122417Y138914D02*
X123517D01*
X122967Y138364D02*
Y139464D01*
X122417Y136374D02*
X123517D01*
X122967Y135824D02*
Y136924D01*
X122417Y133834D02*
X123517D01*
X122967Y133284D02*
Y134384D01*
X122417Y131294D02*
X123517D01*
X122967Y130744D02*
Y131844D01*
X122417Y128754D02*
X123517D01*
X122967Y128204D02*
Y129304D01*
X122417Y126214D02*
X123517D01*
X122967Y125664D02*
Y126764D01*
X122417Y123674D02*
X123517D01*
X122967Y123124D02*
Y124224D01*
X128173Y133834D02*
X128573D01*
X128373Y133634D02*
Y134034D01*
M02*
