M48
;Layer_Color=6321
;FILE_FORMAT=4:3
METRIC,LZ
;TYPE=PLATED
T1F00S00C0.400
T2F00S00C0.762
T3F00S00C0.900
T4F00S00C1.000
T5F00S00C1.100
;TYPE=NON_PLATED
T6F00S00C3.400
%
T01
X0128373Y0133834
T02
X01264Y0172523
X013
Y0176123
X01264
T03
X0150749Y0110109
X0153289
Y0112649
X0150749
X0114808Y012469
Y012723
Y012977
Y013231
Y013485
Y013739
Y013993
Y014247
Y014501
Y014755
Y015009
Y015263
Y015517
Y015771
X0112268
Y015517
Y015263
Y015009
Y014755
Y014501
Y014247
Y013993
Y013739
Y013485
Y013231
Y012977
Y012723
Y012469
Y016025
X0114808
X0113792Y0173307
Y0175847
X0111252
Y0173307
T04
X0137795Y0176101
X0140335
T05
X0122967Y0123674
Y0126214
Y0128754
Y0131294
Y0133834
Y0136374
Y0138914
Y0141454
Y0143994
Y0146534
Y0149074
Y0151614
Y0154154
Y0156694
X0145257
Y0154154
Y0151614
Y0149074
Y0146534
Y0143994
Y0141454
Y0138914
Y0136374
Y0133834
Y0131294
Y0128754
Y0126214
Y0123674
Y0159234
X0122967
T06
X0114349Y0114403
X0141949
X0114349Y0168103
X0141949
M30
