G04*
G04 #@! TF.GenerationSoftware,Altium Limited,CircuitStudio,1.5.1 (13)*
G04*
G04 Layer_Color=15065295*
%FSLAX43Y43*%
%MOMM*%
G71*
G01*
G75*
%ADD18C,0.200*%
%ADD19C,0.254*%
%ADD20C,0.120*%
%ADD21C,0.152*%
%ADD22C,0.203*%
%ADD23C,0.500*%
%ADD24C,0.280*%
D18*
X140726Y177123D02*
G03*
X137686Y177480I-1661J-1022D01*
G01*
X137753Y174658D02*
G03*
X140726Y175079I1312J1443D01*
G01*
X132580Y174323D02*
G03*
X132580Y174323I-4380J0D01*
G01*
X149479Y113919D02*
X154559D01*
X149479Y108839D02*
Y113919D01*
X154559Y108839D02*
Y113919D01*
X149479Y108839D02*
X154559D01*
X109982Y177117D02*
X115062D01*
X109982Y172037D02*
Y177117D01*
X115062Y172037D02*
Y177117D01*
X109982Y172037D02*
X115062D01*
X137668Y174743D02*
X137753Y174658D01*
X137668Y177117D02*
Y177480D01*
Y174743D02*
Y175085D01*
X110998Y123420D02*
X116078D01*
X110998D02*
Y161520D01*
X116078Y123420D02*
Y161520D01*
X110998D02*
X116078D01*
X124075Y175773D02*
X124375D01*
X124075Y172923D02*
X124375D01*
Y175773D02*
X124825Y175323D01*
X124375Y172923D02*
X124825Y173373D01*
Y174323D01*
Y175323D01*
D19*
X144145Y170894D02*
Y172418D01*
X144907D01*
X145161Y172164D01*
Y171656D01*
X144907Y171402D01*
X144145D01*
X144653D02*
X145161Y170894D01*
X145669D02*
X146176D01*
X145922D01*
Y172418D01*
X145669Y172164D01*
X137160Y173053D02*
Y171529D01*
X138176D01*
X139699Y173053D02*
X138684D01*
Y171529D01*
X139699D01*
X138684Y172291D02*
X139191D01*
X140207Y173053D02*
Y171529D01*
X140969D01*
X141223Y171783D01*
Y172799D01*
X140969Y173053D01*
X140207D01*
X123317Y181483D02*
Y179959D01*
Y180721D01*
X124333D01*
Y181483D01*
Y179959D01*
X124841Y181483D02*
Y181229D01*
X125348Y180721D01*
X125856Y181229D01*
Y181483D01*
X125348Y180721D02*
Y179959D01*
X126364Y181483D02*
X127380D01*
X126872D01*
Y179959D01*
X129411Y180213D02*
X129665Y179959D01*
X130173D01*
X130427Y180213D01*
Y181229D01*
X130173Y181483D01*
X129665D01*
X129411Y181229D01*
Y180975D01*
X129665Y180721D01*
X130427D01*
X130935Y181229D02*
X131188Y181483D01*
X131696D01*
X131950Y181229D01*
Y180975D01*
X131696Y180721D01*
X131442D01*
X131696D01*
X131950Y180467D01*
Y180213D01*
X131696Y179959D01*
X131188D01*
X130935Y180213D01*
X132458D02*
X132712Y179959D01*
X133220D01*
X133474Y180213D01*
Y181229D01*
X133220Y181483D01*
X132712D01*
X132458Y181229D01*
Y180975D01*
X132712Y180721D01*
X133474D01*
X123952Y168021D02*
X122936D01*
Y166497D01*
X123952D01*
X122936Y167259D02*
X123444D01*
X125475Y167767D02*
X125221Y168021D01*
X124713D01*
X124460Y167767D01*
Y167513D01*
X124713Y167259D01*
X125221D01*
X125475Y167005D01*
Y166751D01*
X125221Y166497D01*
X124713D01*
X124460Y166751D01*
X125983Y166497D02*
Y168021D01*
X126745D01*
X126999Y167767D01*
Y167259D01*
X126745Y167005D01*
X125983D01*
X127507Y167767D02*
X127760Y168021D01*
X128268D01*
X128522Y167767D01*
Y167513D01*
X128268Y167259D01*
X128522Y167005D01*
Y166751D01*
X128268Y166497D01*
X127760D01*
X127507Y166751D01*
Y167005D01*
X127760Y167259D01*
X127507Y167513D01*
Y167767D01*
X127760Y167259D02*
X128268D01*
X130046Y166497D02*
X129030D01*
X130046Y167513D01*
Y167767D01*
X129792Y168021D01*
X129284D01*
X129030Y167767D01*
X131569Y168021D02*
X131061Y167767D01*
X130554Y167259D01*
Y166751D01*
X130807Y166497D01*
X131315D01*
X131569Y166751D01*
Y167005D01*
X131315Y167259D01*
X130554D01*
X133093Y168021D02*
X132585Y167767D01*
X132077Y167259D01*
Y166751D01*
X132331Y166497D01*
X132839D01*
X133093Y166751D01*
Y167005D01*
X132839Y167259D01*
X132077D01*
X116840Y125452D02*
X117094Y125706D01*
X117602D01*
X117856Y125452D01*
Y125198D01*
X117602Y124944D01*
X117348D01*
X117602D01*
X117856Y124690D01*
Y124436D01*
X117602Y124182D01*
X117094D01*
X116840Y124436D01*
X118364Y125706D02*
Y124690D01*
X118871Y124182D01*
X119379Y124690D01*
Y125706D01*
X119887Y125452D02*
X120141Y125706D01*
X120649D01*
X120903Y125452D01*
Y125198D01*
X120649Y124944D01*
X120395D01*
X120649D01*
X120903Y124690D01*
Y124436D01*
X120649Y124182D01*
X120141D01*
X119887Y124436D01*
X117856Y127865D02*
X117602Y128119D01*
X117094D01*
X116840Y127865D01*
Y126849D01*
X117094Y126595D01*
X117602D01*
X117856Y126849D01*
Y127357D01*
X117348D01*
X118364Y126595D02*
Y128119D01*
X119379Y126595D01*
Y128119D01*
X119887D02*
Y126595D01*
X120649D01*
X120903Y126849D01*
Y127865D01*
X120649Y128119D01*
X119887D01*
X116840Y130659D02*
X117856D01*
X117348D01*
Y129135D01*
X118364Y130659D02*
X119379Y129135D01*
Y130659D02*
X118364Y129135D01*
X116840Y131675D02*
Y133199D01*
X117602D01*
X117856Y132945D01*
Y132437D01*
X117602Y132183D01*
X116840D01*
X117348D02*
X117856Y131675D01*
X118364Y133199D02*
X119379Y131675D01*
Y133199D02*
X118364Y131675D01*
X116840Y135739D02*
Y134215D01*
X117602D01*
X117856Y134469D01*
Y135485D01*
X117602Y135739D01*
X116840D01*
X118364Y135485D02*
X118617Y135739D01*
X119125D01*
X119379Y135485D01*
Y135231D01*
X119125Y134977D01*
X119379Y134723D01*
Y134469D01*
X119125Y134215D01*
X118617D01*
X118364Y134469D01*
Y134723D01*
X118617Y134977D01*
X118364Y135231D01*
Y135485D01*
X118617Y134977D02*
X119125D01*
X116840Y138279D02*
Y136755D01*
X117602D01*
X117856Y137009D01*
Y138025D01*
X117602Y138279D01*
X116840D01*
X118364D02*
X119379D01*
Y138025D01*
X118364Y137009D01*
Y136755D01*
X116840Y140819D02*
Y139295D01*
X117602D01*
X117856Y139549D01*
Y140565D01*
X117602Y140819D01*
X116840D01*
X119379D02*
X118871Y140565D01*
X118364Y140057D01*
Y139549D01*
X118617Y139295D01*
X119125D01*
X119379Y139549D01*
Y139803D01*
X119125Y140057D01*
X118364D01*
X116840Y143359D02*
Y141835D01*
X117602D01*
X117856Y142089D01*
Y143105D01*
X117602Y143359D01*
X116840D01*
X119379D02*
X118364D01*
Y142597D01*
X118871Y142851D01*
X119125D01*
X119379Y142597D01*
Y142089D01*
X119125Y141835D01*
X118617D01*
X118364Y142089D01*
X117856Y145518D02*
X117602Y145772D01*
X117094D01*
X116840Y145518D01*
Y144502D01*
X117094Y144248D01*
X117602D01*
X117856Y144502D01*
Y145010D01*
X117348D01*
X118364Y144248D02*
Y145772D01*
X119379Y144248D01*
Y145772D01*
X119887D02*
Y144248D01*
X120649D01*
X120903Y144502D01*
Y145518D01*
X120649Y145772D01*
X119887D01*
X116840Y148185D02*
X117094Y148439D01*
X117602D01*
X117856Y148185D01*
Y147931D01*
X117602Y147677D01*
X117348D01*
X117602D01*
X117856Y147423D01*
Y147169D01*
X117602Y146915D01*
X117094D01*
X116840Y147169D01*
X118364Y148439D02*
Y147423D01*
X118871Y146915D01*
X119379Y147423D01*
Y148439D01*
X119887Y148185D02*
X120141Y148439D01*
X120649D01*
X120903Y148185D01*
Y147931D01*
X120649Y147677D01*
X120395D01*
X120649D01*
X120903Y147423D01*
Y147169D01*
X120649Y146915D01*
X120141D01*
X119887Y147169D01*
X116967Y151130D02*
Y149606D01*
X117729D01*
X117983Y149860D01*
Y150876D01*
X117729Y151130D01*
X116967D01*
X119252Y149606D02*
Y151130D01*
X118491Y150368D01*
X119506D01*
X116967Y153543D02*
Y152019D01*
X117729D01*
X117983Y152273D01*
Y153289D01*
X117729Y153543D01*
X116967D01*
X118491Y153289D02*
X118744Y153543D01*
X119252D01*
X119506Y153289D01*
Y153035D01*
X119252Y152781D01*
X118998D01*
X119252D01*
X119506Y152527D01*
Y152273D01*
X119252Y152019D01*
X118744D01*
X118491Y152273D01*
X117729Y155829D02*
X117475Y156083D01*
X116967D01*
X116713Y155829D01*
Y155575D01*
X116967Y155321D01*
X117475D01*
X117729Y155067D01*
Y154813D01*
X117475Y154559D01*
X116967D01*
X116713Y154813D01*
X119252Y155829D02*
X118998Y156083D01*
X118490D01*
X118237Y155829D01*
Y154813D01*
X118490Y154559D01*
X118998D01*
X119252Y154813D01*
X119760Y156083D02*
Y154559D01*
X120776D01*
X117856Y158242D02*
X117602Y158496D01*
X117094D01*
X116840Y158242D01*
Y157988D01*
X117094Y157734D01*
X117602D01*
X117856Y157480D01*
Y157226D01*
X117602Y156972D01*
X117094D01*
X116840Y157226D01*
X118364Y158496D02*
Y156972D01*
X119125D01*
X119379Y157226D01*
Y158242D01*
X119125Y158496D01*
X118364D01*
X119887Y156972D02*
Y157988D01*
X120395Y158496D01*
X120903Y157988D01*
Y156972D01*
Y157734D01*
X119887D01*
X116967Y161163D02*
Y159639D01*
X117729D01*
X117983Y159893D01*
Y160909D01*
X117729Y161163D01*
X116967D01*
X118491Y160909D02*
X118744Y161163D01*
X119252D01*
X119506Y160909D01*
Y159893D01*
X119252Y159639D01*
X118744D01*
X118491Y159893D01*
Y160909D01*
X107188Y127889D02*
X106934Y128143D01*
X106426D01*
X106172Y127889D01*
Y126873D01*
X106426Y126619D01*
X106934D01*
X107188Y126873D01*
Y127381D01*
X106680D01*
X107696Y126619D02*
Y128143D01*
X108711Y126619D01*
Y128143D01*
X109219D02*
Y126619D01*
X109981D01*
X110235Y126873D01*
Y127889D01*
X109981Y128143D01*
X109219D01*
X106299Y129286D02*
Y130810D01*
X107061D01*
X107315Y130556D01*
Y130048D01*
X107061Y129794D01*
X106299D01*
X106807D02*
X107315Y129286D01*
X108838Y130556D02*
X108584Y130810D01*
X108076D01*
X107823Y130556D01*
Y130302D01*
X108076Y130048D01*
X108584D01*
X108838Y129794D01*
Y129540D01*
X108584Y129286D01*
X108076D01*
X107823Y129540D01*
X109346Y130810D02*
X110362D01*
X109854D01*
Y129286D01*
X107569Y133199D02*
X106553D01*
Y131675D01*
X107569D01*
X106553Y132437D02*
X107061D01*
X108077Y131675D02*
Y133199D01*
X109092Y131675D01*
Y133199D01*
X106172Y135382D02*
X106426Y135636D01*
X106934D01*
X107188Y135382D01*
Y135128D01*
X106934Y134874D01*
X106680D01*
X106934D01*
X107188Y134620D01*
Y134366D01*
X106934Y134112D01*
X106426D01*
X106172Y134366D01*
X107696Y135636D02*
Y134620D01*
X108203Y134112D01*
X108711Y134620D01*
Y135636D01*
X109219Y135382D02*
X109473Y135636D01*
X109981D01*
X110235Y135382D01*
Y135128D01*
X109981Y134874D01*
X109727D01*
X109981D01*
X110235Y134620D01*
Y134366D01*
X109981Y134112D01*
X109473D01*
X109219Y134366D01*
X107188Y137922D02*
X106934Y138176D01*
X106426D01*
X106172Y137922D01*
Y136906D01*
X106426Y136652D01*
X106934D01*
X107188Y136906D01*
Y137414D01*
X106680D01*
X107696Y136652D02*
Y138176D01*
X108711Y136652D01*
Y138176D01*
X109219D02*
Y136652D01*
X109981D01*
X110235Y136906D01*
Y137922D01*
X109981Y138176D01*
X109219D01*
X107315Y140438D02*
X107061Y140692D01*
X106553D01*
X106299Y140438D01*
Y139422D01*
X106553Y139168D01*
X107061D01*
X107315Y139422D01*
X107823Y140692D02*
Y139168D01*
X108838D01*
X109346Y140692D02*
Y139168D01*
Y139676D01*
X110362Y140692D01*
X109600Y139930D01*
X110362Y139168D01*
X107315Y142978D02*
X107061Y143232D01*
X106553D01*
X106299Y142978D01*
Y142724D01*
X106553Y142470D01*
X107061D01*
X107315Y142216D01*
Y141962D01*
X107061Y141708D01*
X106553D01*
X106299Y141962D01*
X107823Y143232D02*
Y141708D01*
X108584D01*
X108838Y141962D01*
Y142978D01*
X108584Y143232D01*
X107823D01*
X109346Y142978D02*
X109600Y143232D01*
X110108D01*
X110362Y142978D01*
Y141962D01*
X110108Y141708D01*
X109600D01*
X109346Y141962D01*
Y142978D01*
X107188Y145645D02*
X106934Y145899D01*
X106426D01*
X106172Y145645D01*
Y144629D01*
X106426Y144375D01*
X106934D01*
X107188Y144629D01*
X107696Y144375D02*
Y145899D01*
X108203Y145391D01*
X108711Y145899D01*
Y144375D01*
X109219Y145899D02*
Y144375D01*
X109981D01*
X110235Y144629D01*
Y145645D01*
X109981Y145899D01*
X109219D01*
X107188Y148185D02*
X106934Y148439D01*
X106426D01*
X106172Y148185D01*
Y147931D01*
X106426Y147677D01*
X106934D01*
X107188Y147423D01*
Y147169D01*
X106934Y146915D01*
X106426D01*
X106172Y147169D01*
X107696Y148439D02*
Y146915D01*
X108457D01*
X108711Y147169D01*
Y148185D01*
X108457Y148439D01*
X107696D01*
X109219Y146915D02*
X109727D01*
X109473D01*
Y148439D01*
X109219Y148185D01*
X107188Y150598D02*
X106934Y150852D01*
X106426D01*
X106172Y150598D01*
Y150344D01*
X106426Y150090D01*
X106934D01*
X107188Y149836D01*
Y149582D01*
X106934Y149328D01*
X106426D01*
X106172Y149582D01*
X107696Y150852D02*
Y149328D01*
X108457D01*
X108711Y149582D01*
Y150598D01*
X108457Y150852D01*
X107696D01*
X110235Y149328D02*
X109219D01*
X110235Y150344D01*
Y150598D01*
X109981Y150852D01*
X109473D01*
X109219Y150598D01*
X107188Y153138D02*
X106934Y153392D01*
X106426D01*
X106172Y153138D01*
Y152884D01*
X106426Y152630D01*
X106934D01*
X107188Y152376D01*
Y152122D01*
X106934Y151868D01*
X106426D01*
X106172Y152122D01*
X107696Y153392D02*
Y151868D01*
X108457D01*
X108711Y152122D01*
Y153138D01*
X108457Y153392D01*
X107696D01*
X109219Y153138D02*
X109473Y153392D01*
X109981D01*
X110235Y153138D01*
Y152884D01*
X109981Y152630D01*
X109727D01*
X109981D01*
X110235Y152376D01*
Y152122D01*
X109981Y151868D01*
X109473D01*
X109219Y152122D01*
X106426Y154408D02*
Y155932D01*
X107188D01*
X107442Y155678D01*
Y155170D01*
X107188Y154916D01*
X106426D01*
X106934D02*
X107442Y154408D01*
X108965Y155678D02*
X108711Y155932D01*
X108203D01*
X107950Y155678D01*
Y155424D01*
X108203Y155170D01*
X108711D01*
X108965Y154916D01*
Y154662D01*
X108711Y154408D01*
X108203D01*
X107950Y154662D01*
X109473Y155932D02*
Y154916D01*
X109981Y154408D01*
X110489Y154916D01*
Y155932D01*
X106426Y156948D02*
Y158472D01*
X107188D01*
X107442Y158218D01*
Y157710D01*
X107188Y157456D01*
X106426D01*
X106934D02*
X107442Y156948D01*
X108965Y158218D02*
X108711Y158472D01*
X108203D01*
X107950Y158218D01*
Y157964D01*
X108203Y157710D01*
X108711D01*
X108965Y157456D01*
Y157202D01*
X108711Y156948D01*
X108203D01*
X107950Y157202D01*
X109473Y158472D02*
Y157456D01*
X109981Y156948D01*
X110489Y157456D01*
Y158472D01*
X107950Y159615D02*
Y160631D01*
X108458Y161139D01*
X108966Y160631D01*
Y159615D01*
Y160377D01*
X107950D01*
X109474Y160885D02*
X109727Y161139D01*
X110235D01*
X110489Y160885D01*
Y159869D01*
X110235Y159615D01*
X109727D01*
X109474Y159869D01*
Y160885D01*
X117348Y173990D02*
X117094Y174244D01*
X116586D01*
X116332Y173990D01*
Y173736D01*
X116586Y173482D01*
X117094D01*
X117348Y173228D01*
Y172974D01*
X117094Y172720D01*
X116586D01*
X116332Y172974D01*
X117856Y174244D02*
Y172720D01*
X118617D01*
X118871Y172974D01*
Y173990D01*
X118617Y174244D01*
X117856D01*
X119379Y172720D02*
Y173736D01*
X119887Y174244D01*
X120395Y173736D01*
Y172720D01*
Y173482D01*
X119379D01*
X117475Y176530D02*
X117221Y176784D01*
X116713D01*
X116459Y176530D01*
Y175514D01*
X116713Y175260D01*
X117221D01*
X117475Y175514D01*
Y176022D01*
X116967D01*
X117983Y175260D02*
Y176784D01*
X118998Y175260D01*
Y176784D01*
X119506D02*
Y175260D01*
X120268D01*
X120522Y175514D01*
Y176530D01*
X120268Y176784D01*
X119506D01*
X105791Y174117D02*
X105537Y174371D01*
X105029D01*
X104775Y174117D01*
Y173863D01*
X105029Y173609D01*
X105537D01*
X105791Y173355D01*
Y173101D01*
X105537Y172847D01*
X105029D01*
X104775Y173101D01*
X107314Y174117D02*
X107060Y174371D01*
X106552D01*
X106299Y174117D01*
Y173101D01*
X106552Y172847D01*
X107060D01*
X107314Y173101D01*
X107822Y174371D02*
Y172847D01*
X108838D01*
X104775Y176530D02*
X105029Y176784D01*
X105537D01*
X105791Y176530D01*
Y176276D01*
X105537Y176022D01*
X105283D01*
X105537D01*
X105791Y175768D01*
Y175514D01*
X105537Y175260D01*
X105029D01*
X104775Y175514D01*
X106299Y176784D02*
Y175768D01*
X106806Y175260D01*
X107314Y175768D01*
Y176784D01*
X107822Y176530D02*
X108076Y176784D01*
X108584D01*
X108838Y176530D01*
Y176276D01*
X108584Y176022D01*
X108330D01*
X108584D01*
X108838Y175768D01*
Y175514D01*
X108584Y175260D01*
X108076D01*
X107822Y175514D01*
X149606Y115824D02*
X149860Y116078D01*
X150368D01*
X150622Y115824D01*
Y115570D01*
X150368Y115316D01*
X150114D01*
X150368D01*
X150622Y115062D01*
Y114808D01*
X150368Y114554D01*
X149860D01*
X149606Y114808D01*
X151130Y116078D02*
Y115062D01*
X151637Y114554D01*
X152145Y115062D01*
Y116078D01*
X152653Y115824D02*
X152907Y116078D01*
X153415D01*
X153669Y115824D01*
Y115570D01*
X153415Y115316D01*
X153161D01*
X153415D01*
X153669Y115062D01*
Y114808D01*
X153415Y114554D01*
X152907D01*
X152653Y114808D01*
X151384Y107823D02*
X151130Y108077D01*
X150622D01*
X150368Y107823D01*
Y106807D01*
X150622Y106553D01*
X151130D01*
X151384Y106807D01*
Y107315D01*
X150876D01*
X151892Y106553D02*
Y108077D01*
X152907Y106553D01*
Y108077D01*
X153415D02*
Y106553D01*
X154177D01*
X154431Y106807D01*
Y107823D01*
X154177Y108077D01*
X153415D01*
X133477Y120396D02*
Y119126D01*
X133731Y118872D01*
X134239D01*
X134493Y119126D01*
Y120396D01*
X136016Y120142D02*
X135762Y120396D01*
X135254D01*
X135001Y120142D01*
Y119888D01*
X135254Y119634D01*
X135762D01*
X136016Y119380D01*
Y119126D01*
X135762Y118872D01*
X135254D01*
X135001Y119126D01*
X136524Y120396D02*
Y118872D01*
X137286D01*
X137540Y119126D01*
Y119380D01*
X137286Y119634D01*
X136524D01*
X137286D01*
X137540Y119888D01*
Y120142D01*
X137286Y120396D01*
X136524D01*
D20*
X107823Y125182D02*
Y124515D01*
X108156Y124182D01*
X108489Y124515D01*
Y125182D01*
X108823D02*
X109156D01*
X108989D01*
Y124182D01*
X108823D01*
X109156D01*
X109656D02*
Y125182D01*
X110322Y124182D01*
Y125182D01*
D21*
X136525Y176609D02*
Y177371D01*
Y177117D01*
X136017Y176609D01*
X136398Y176990D01*
X136017Y177371D01*
D22*
X115358Y122682D02*
X115570Y122470D01*
Y122047D01*
X115358Y121836D01*
X115146D01*
X114935Y122047D01*
Y122259D01*
Y122047D01*
X114723Y121836D01*
X114512D01*
X114300Y122047D01*
Y122470D01*
X114512Y122682D01*
X115358Y121412D02*
X115570Y121201D01*
Y120778D01*
X115358Y120566D01*
X114512D01*
X114300Y120778D01*
Y121201D01*
X114512Y121412D01*
X115358D01*
X111760Y122809D02*
Y122386D01*
Y122597D01*
X113030D01*
X112818Y122809D01*
X113030Y120905D02*
Y121751D01*
X112395D01*
X112606Y121328D01*
Y121116D01*
X112395Y120905D01*
X111972D01*
X111760Y121116D01*
Y121539D01*
X111972Y121751D01*
X111760Y162790D02*
Y162367D01*
Y162578D01*
X113030D01*
X112818Y162790D01*
X114300Y164211D02*
Y163788D01*
Y163999D01*
X115570D01*
X115358Y164211D01*
X115570Y162307D02*
X115358Y162730D01*
X114935Y163153D01*
X114512D01*
X114300Y162941D01*
Y162518D01*
X114512Y162307D01*
X114723D01*
X114935Y162518D01*
Y163153D01*
D23*
X101219Y104140D02*
Y107139D01*
X102719D01*
X103218Y106639D01*
Y105640D01*
X102719Y105140D01*
X101219D01*
X102219D02*
X103218Y104140D01*
X104718D02*
X105718D01*
X106217Y104640D01*
Y105640D01*
X105718Y106139D01*
X104718D01*
X104218Y105640D01*
Y104640D01*
X104718Y104140D01*
X107717D02*
X108717D01*
X109216Y104640D01*
Y105640D01*
X108717Y106139D01*
X107717D01*
X107217Y105640D01*
Y104640D01*
X107717Y104140D01*
X110216D02*
Y106139D01*
X110716D01*
X111216Y105640D01*
Y104140D01*
Y105640D01*
X111716Y106139D01*
X112215Y105640D01*
Y104140D01*
X115214Y106639D02*
X114715Y107139D01*
X113715D01*
X113215Y106639D01*
Y104640D01*
X113715Y104140D01*
X114715D01*
X115214Y104640D01*
X116714Y104140D02*
X117714D01*
X118214Y104640D01*
Y105640D01*
X117714Y106139D01*
X116714D01*
X116214Y105640D01*
Y104640D01*
X116714Y104140D01*
X119213D02*
Y106139D01*
X120713D01*
X121213Y105640D01*
Y104140D01*
X122712Y106639D02*
Y106139D01*
X122212D01*
X123212D01*
X122712D01*
Y104640D01*
X123212Y104140D01*
X124711Y106139D02*
Y104140D01*
Y105140D01*
X125211Y105640D01*
X125711Y106139D01*
X126211D01*
X128210Y104140D02*
X129210D01*
X129710Y104640D01*
Y105640D01*
X129210Y106139D01*
X128210D01*
X127710Y105640D01*
Y104640D01*
X128210Y104140D01*
X130709D02*
X131709D01*
X131209D01*
Y107139D01*
X130709D01*
X133209Y104140D02*
X134208D01*
X133708D01*
Y107139D01*
X133209D01*
X135708Y104140D02*
X136708D01*
X136208D01*
Y106139D01*
X135708D01*
X138207Y104140D02*
Y106139D01*
X139707D01*
X140206Y105640D01*
Y104140D01*
X142206Y103140D02*
X142706D01*
X143205Y103640D01*
Y106139D01*
X141706D01*
X141206Y105640D01*
Y104640D01*
X141706Y104140D01*
X143205D01*
D24*
X100965Y100965D02*
X101473D01*
X101219D01*
Y102489D01*
X100965Y102235D01*
X102235D02*
X102489Y102489D01*
X102996D01*
X103250Y102235D01*
Y101981D01*
X102996Y101727D01*
X103250Y101473D01*
Y101219D01*
X102996Y100965D01*
X102489D01*
X102235Y101219D01*
Y101473D01*
X102489Y101727D01*
X102235Y101981D01*
Y102235D01*
X102489Y101727D02*
X102996D01*
X103758Y100965D02*
Y101219D01*
X104012D01*
Y100965D01*
X103758D01*
X105028D02*
X105536D01*
X105282D01*
Y102489D01*
X105028Y102235D01*
X107313Y100965D02*
X106297D01*
X107313Y101981D01*
Y102235D01*
X107059Y102489D01*
X106551D01*
X106297Y102235D01*
X107821Y100965D02*
Y101219D01*
X108075D01*
Y100965D01*
X107821D01*
X110106D02*
X109090D01*
X110106Y101981D01*
Y102235D01*
X109852Y102489D01*
X109344D01*
X109090Y102235D01*
X110614D02*
X110868Y102489D01*
X111376D01*
X111630Y102235D01*
Y101219D01*
X111376Y100965D01*
X110868D01*
X110614Y101219D01*
Y102235D01*
X112137Y100965D02*
X112645D01*
X112391D01*
Y102489D01*
X112137Y102235D01*
X113407D02*
X113661Y102489D01*
X114169D01*
X114423Y102235D01*
Y101981D01*
X114169Y101727D01*
X114423Y101473D01*
Y101219D01*
X114169Y100965D01*
X113661D01*
X113407Y101219D01*
Y101473D01*
X113661Y101727D01*
X113407Y101981D01*
Y102235D01*
X113661Y101727D02*
X114169D01*
X125595Y102489D02*
Y101473D01*
X126103Y100965D01*
X126611Y101473D01*
Y102489D01*
X127119Y100965D02*
X127626D01*
X127372D01*
Y102489D01*
X127119Y102235D01*
X128388Y100965D02*
Y101219D01*
X128642D01*
Y100965D01*
X128388D01*
X129658Y102235D02*
X129912Y102489D01*
X130419D01*
X130673Y102235D01*
Y101219D01*
X130419Y100965D01*
X129912D01*
X129658Y101219D01*
Y102235D01*
M02*
